<?xml version="1.0" encoding="UTF-8" standalone="no"?>
<svg width="21px" height="22px" viewBox="0 0 21 22" version="1.1" xmlns="http://www.w3.org/2000/svg" xmlns:xlink="http://www.w3.org/1999/xlink">
    <!-- Generator: Sketch 40.3 (33839) - http://www.bohemiancoding.com/sketch -->
    <title>Magnifying Glass</title>
    <desc>Created with Sketch.</desc>
    <defs></defs>
    <g id="Welcome" stroke="none" stroke-width="1" fill="none" fill-rule="evenodd">
        <g id="Mobile-Portrait" transform="translate(-259.000000, -335.000000)" fill="#354050">
            <g id="Search-Copy-2" transform="translate(25.000000, 324.000000)">
                <path d="M249.092262,24.8136905 L248.14369,24.8136905 L247.787976,24.4579762 C248.97369,23.1536905 249.685119,21.375119 249.685119,19.4779762 C249.685119,15.2094048 246.246548,11.7708333 241.977976,11.7708333 C237.709405,11.7708333 234.270833,15.2094048 234.270833,19.4779762 C234.270833,23.7465476 237.709405,27.185119 241.977976,27.185119 C243.875119,27.185119 245.65369,26.4736905 246.957976,25.2879762 L247.31369,25.6436905 L247.31369,26.5922619 L253.242262,32.5208333 L255.020833,30.7422619 L249.092262,24.8136905 L249.092262,24.8136905 Z M241.977976,24.8136905 C239.01369,24.8136905 236.642262,22.4422619 236.642262,19.4779762 C236.642262,16.5136905 239.01369,14.1422619 241.977976,14.1422619 C244.942262,14.1422619 247.31369,16.5136905 247.31369,19.4779762 C247.31369,22.4422619 244.942262,24.8136905 241.977976,24.8136905 L241.977976,24.8136905 Z" id="Magnifying-Glass"></path>
            </g>
        </g>
    </g>
</svg>