<?xml version="1.0" encoding="UTF-8" standalone="no"?>
<svg width="36px" height="36px" viewBox="0 0 36 36" version="1.1" xmlns="http://www.w3.org/2000/svg" xmlns:xlink="http://www.w3.org/1999/xlink">
    <!-- Generator: Sketch 40.3 (33839) - http://www.bohemiancoding.com/sketch -->
    <title>Shape</title>
    <desc>Created with Sketch.</desc>
    <defs></defs>
    <g id="Welcome" stroke="none" stroke-width="1" fill="none" fill-rule="evenodd">
        <g id="Mobile-Portrait" transform="translate(-62.000000, -17.000000)" fill="#10E8AF">
            <g id="Nav-Copy-2">
                <g id="Logo" transform="translate(62.000000, 17.000000)">
                    <path d="M17.9998925,0.00042988411 C8.05903742,0.00042988411 0,8.05925236 0,18.0001075 C0,27.9413925 8.05903742,35.9995701 17.9998925,35.9995701 C27.9418224,35.9995701 36,27.9413925 36,18.0001075 C36,8.05989719 27.9418224,0.00128965233 17.9996776,0.00128965233 L17.9998925,0.00042988411 L17.9998925,0.00042988411 Z M26.2545272,25.9611313 C25.9321141,26.4898888 25.2400007,26.6575436 24.7112433,26.3329811 C20.4850526,23.751527 15.1648068,23.1668846 8.89924591,24.5983987 C8.29547368,24.7359616 7.69363592,24.3576636 7.55607301,23.7536764 C7.41786527,23.1496892 7.79465869,22.5478515 8.39993552,22.4102886 C15.2565871,20.843146 21.1380465,21.518279 25.8826775,24.4178474 C26.4114349,24.7424099 26.5790897,25.4323739 26.2545272,25.9611313 L26.2545272,25.9611313 Z M28.4576833,21.0593777 C28.0514428,21.7203246 27.1873757,21.9288184 26.5275036,21.5225779 C21.689158,18.5479948 14.3138512,17.686722 8.591019,19.4238836 C7.84882409,19.6480682 7.06493041,19.229791 6.83967114,18.4888857 C6.6161314,17.7466908 7.03462358,16.9643017 7.77552885,16.7386125 C14.3125616,14.7551273 22.4393057,15.7159183 27.9955579,19.1302728 C28.65543,19.5365133 28.8639238,20.4005803 28.4576833,21.0595927 L28.4576833,21.0593777 L28.4576833,21.0593777 Z M28.6468323,15.9557936 C22.8455462,12.5100575 13.2741765,12.1932329 7.73533468,13.8742947 C6.84590446,14.144047 5.90531802,13.6419424 5.63578069,12.7525121 C5.36624335,11.862652 5.86791811,10.9227104 6.75799316,10.6523133 C13.1161941,8.72213366 23.6859697,9.09505812 30.3650791,13.0600942 C31.1668129,13.5349012 31.4290423,14.5681277 30.9540203,15.3670673 C30.4811478,16.1670816 29.4451271,16.4308155 28.6476921,15.9557936 L28.6468323,15.9557936 Z" id="Shape"></path>
                </g>
            </g>
        </g>
    </g>
</svg>